{
  "accessors": [
    {
      "bufferView": 2,
      "componentType": 5126,
      "count": 1180,
      "max": [
        153.41200256347656,
        22.990800857543945,
        341.6629943847656
      ],
      "min": [
        -153.41200256347656,
        -36.59659957885742,
        21.596599578857422
      ],
      "type": "VEC3"
    },
    {
      "bufferView": 2,
      "byteOffset": 14160,
      "componentType": 5126,
      "count": 1180,
      "max": [
        0.9955745339393616,
        0.9994701147079468,
        0.9750750064849854
      ],
      "min": [
        -0.9955745339393616,
        -0.999210774898529,
        -0.9997142553329468
      ],
      "type": "VEC3"
    },
    {
      "bufferView": 3,
      "componentType": 5126,
      "count": 1180,
      "max": [
        0.9996213316917419,
        0.9997039437294006,
        0.9982043504714966,
        1.0
      ],
      "min": [
        -0.9996210336685181,
        -0.9821265935897827,
        -0.9999346137046814,
        1.0
      ],
      "type": "VEC4"
    },
    {
      "bufferView": 1,
      "componentType": 5126,
      "count": 1180,
      "max": [
        0.8146179914474487,
        0.9998019933700562
      ],
      "min": [
        0.00019819500448647887,
        0.00019819500448647887
      ],
      "type": "VEC2"
    },
    {
      "bufferView": 0,
      "componentType": 5125,
      "count": 1596,
      "type": "SCALAR"
    },
    {
      "bufferView": 2,
      "byteOffset": 28320,
      "componentType": 5126,
      "count": 3745,
      "max": [
        119.12300109863281,
        44.075199127197266,
        344.60400390625
      ],
      "min": [
        -119.12300109863281,
        -40.044700622558594,
        37.08679962158203
      ],
      "type": "VEC3"
    },
    {
      "bufferView": 2,
      "byteOffset": 73260,
      "componentType": 5126,
      "count": 3745,
      "max": [
        1.0,
        0.9995154738426208,
        1.0
      ],
      "min": [
        -0.9995055198669434,
        -1.0,
        -1.0
      ],
      "type": "VEC3"
    },
    {
      "bufferView": 3,
      "byteOffset": 18880,
      "componentType": 5126,
      "count": 3745,
      "max": [
        0.9999184012413025,
        0.9948900938034058,
        1.0,
        1.0
      ],
      "min": [
        -0.9999182224273682,
        -0.9999704957008362,
        -0.9991824626922607,
        -1.0
      ],
      "type": "VEC4"
    },
    {
      "bufferView": 1,
      "byteOffset": 9440,
      "componentType": 5126,
      "count": 3745,
      "max": [
        0.9996269941329956,
        0.9851530194282532
      ],
      "min": [
        0.0003730909957084805,
        0.0003730909957084805
      ],
      "type": "VEC2"
    },
    {
      "bufferView": 0,
      "byteOffset": 6384,
      "componentType": 5125,
      "count": 5673,
      "type": "SCALAR"
    }
  ],
  "asset": {
    "extras": {
      "author": "Sinjo (https://sketchfab.com/Sinjo)",
      "license": "CC-BY-4.0 (http://creativecommons.org/licenses/by/4.0/)",
      "source": "https://sketchfab.com/3d-models/rusted-knight-533c169e5b034e1e8f4bdc27216c812c",
      "title": "Rusted Knight"
    },
    "generator": "Sketchfab-12.67.0",
    "version": "2.0"
  },
  "bufferViews": [
    {
      "buffer": 0,
      "byteLength": 29076,
      "name": "floatBufferViews",
      "target": 34963
    },
    {
      "buffer": 0,
      "byteLength": 39400,
      "byteOffset": 29076,
      "byteStride": 8,
      "name": "floatBufferViews",
      "target": 34962
    },
    {
      "buffer": 0,
      "byteLength": 118200,
      "byteOffset": 68476,
      "byteStride": 12,
      "name": "floatBufferViews",
      "target": 34962
    },
    {
      "buffer": 0,
      "byteLength": 78800,
      "byteOffset": 186676,
      "byteStride": 16,
      "name": "floatBufferViews",
      "target": 34962
    }
  ],
  "buffers": [
    {
      "byteLength": 265476,
      "uri": "scene.bin"
    }
  ],
  "images": [
    {
      "uri": "textures/DefaultMaterial_baseColor.png"
    },
    {
      "uri": "textures/DefaultMaterial_metallicRoughness.png"
    },
    {
      "uri": "textures/DefaultMaterial_normal.png"
    },
    {
      "uri": "textures/Material_baseColor.png"
    },
    {
      "uri": "textures/Material_metallicRoughness.png"
    },
    {
      "uri": "textures/Material_normal.png"
    }
  ],
  "materials": [
    {
      "doubleSided": true,
      "name": "DefaultMaterial",
      "normalTexture": {
        "index": 2
      },
      "pbrMetallicRoughness": {
        "baseColorTexture": {
          "index": 0
        },
        "metallicRoughnessTexture": {
          "index": 1
        }
      }
    },
    {
      "doubleSided": true,
      "name": "Material",
      "normalTexture": {
        "index": 5
      },
      "pbrMetallicRoughness": {
        "baseColorTexture": {
          "index": 3
        },
        "metallicRoughnessTexture": {
          "index": 4
        }
      }
    }
  ],
  "meshes": [
    {
      "name": "Object_0",
      "primitives": [
        {
          "attributes": {
            "NORMAL": 1,
            "POSITION": 0,
            "TANGENT": 2,
            "TEXCOORD_0": 3
          },
          "indices": 4,
          "material": 1,
          "mode": 4
        }
      ]
    },
    {
      "name": "Object_1",
      "primitives": [
        {
          "attributes": {
            "NORMAL": 6,
            "POSITION": 5,
            "TANGENT": 7,
            "TEXCOORD_0": 8
          },
          "indices": 9,
          "material": 0,
          "mode": 4
        }
      ]
    }
  ],
  "nodes": [
    {
      "children": [
        1
      ],
      "matrix": [
        0.006067091599106789,
        0.0,
        0.0,
        0.0,
        0.0,
        1.3471649571676433e-18,
        -0.006067091599106789,
        0.0,
        0.0,
        0.006067091599106789,
        1.3471649571676433e-18,
        0.0,
        0.0,
        0.0,
        0.0,
        1.0
      ],
      "name": "Sketchfab_model"
    },
    {
      "children": [
        2,
        3
      ],
      "name": "8de5859362fc44148770bceac4d65f1c.obj.cleaner.materialmerger.gles"
    },
    {
      "mesh": 0,
      "name": "Object_2"
    },
    {
      "mesh": 1,
      "name": "Object_3"
    }
  ],
  "samplers": [
    {
      "magFilter": 9729,
      "minFilter": 9987,
      "wrapS": 10497,
      "wrapT": 10497
    }
  ],
  "scene": 0,
  "scenes": [
    {
      "name": "Sketchfab_Scene",
      "nodes": [
        0
      ]
    }
  ],
  "textures": [
    {
      "sampler": 0,
      "source": 0
    },
    {
      "sampler": 0,
      "source": 1
    },
    {
      "sampler": 0,
      "source": 2
    },
    {
      "sampler": 0,
      "source": 3
    },
    {
      "sampler": 0,
      "source": 4
    },
    {
      "sampler": 0,
      "source": 5
    }
  ]
}
